PathFileType  4	(X/Y/Z)
DataRate	CameraRate	NumFrames	NumMarkers	Units	OrigDataRate	OrigDataStartFrame	OrigNumFrames
  200.0 	  200.0 	   9 	     50 	mm 	  200.0 	      1 	   1204
Frame#	Time	R.Shoulder			R.Clavicle			R.Bicep			R.Elbow			R.Forearm			R.Wrist			L.Shoulder			L.Clavicle			L.Scapula			L.Bicep			L.Elbow			L.Forearm			L.Wrist			R.ASIS			R.PSIS			S2			L.PSIS			L.ASIS			R.TH1			R.TH2			R.TH3			R.Knee			R.SH1			R.SH2			R.SH3			R.SH4			R.Ankle			R.Heel			R.MT5			L.TH1			L.TH2			L.TH3			L.TH4			L.Knee			L.SH1			L.SH2			L.SH3			L.Ankle			L.Heel			L.MT5			R.Melb			R.GTR			R.Mkn			R.Man			R.MT0			L.Melb			L.GTR			L.Mkn			L.Man			L.MT0			
		X1	Y1	Z1	X2	Y2	Z2	X3	Y3	Z3	X4	Y4	Z4	X5	Y5	Z5	X6	Y6	Z6	X7	Y7	Z7	X8	Y8	Z8	X9	Y9	Z9	X10	Y10	Z10	X11	Y11	Z11	X12	Y12	Z12	X13	Y13	Z13	X14	Y14	Z14	X15	Y15	Z15	X16	Y16	Z16	X17	Y17	Z17	X18	Y18	Z18	X19	Y19	Z19	X20	Y20	Z20	X21	Y21	Z21	X22	Y22	Z22	X23	Y23	Z23	X24	Y24	Z24	X25	Y25	Z25	X26	Y26	Z26	X27	Y27	Z27	X28	Y28	Z28	X29	Y29	Z29	X30	Y30	Z30	X31	Y31	Z31	X32	Y32	Z32	X33	Y33	Z33	X34	Y34	Z34	X35	Y35	Z35	X36	Y36	Z36	X37	Y37	Z37	X38	Y38	Z38	X39	Y39	Z39	X40	Y40	Z40	X41	Y41	Z41	X42	Y42	Z42	X43	Y43	Z43	X44	Y44	Z44	X45	Y45	Z45	X46	Y46	Z46	X47	Y47	Z47	X48	Y48	Z48	X49	Y49	Z49	X50	Y50	Z50	

1	0.00000	533.346	1606.197	-1935.265	614.362	1600.028	-2081.829	583.253	1397.198	-1883.807	467.194	1306.483	-1852.020	548.545	1247.940	-1762.905	500.489	1133.755	-1731.787	569.983	1608.918	-2308.747	625.092	1600.408	-2139.020	442.032	1576.312	-2214.923	612.079	1452.322	-2352.334	515.853	1314.341	-2409.164	580.195	1248.296	-2470.628	544.172	1131.341	-2498.322	658.227	1151.662	-1985.934	427.726	1226.956	-2068.119	418.347	1221.336	-2120.515	432.885	1228.337	-2173.194	656.419	1140.533	-2241.726	596.262	945.190	-1905.491	445.040	958.775	-1933.934	442.019	883.837	-1942.267	494.522	736.399	-1912.782	519.451	604.018	-1880.657	519.295	529.543	-1887.591	409.805	610.240	-1928.437	408.241	533.812	-1924.137	481.845	333.138	-1893.878	416.000	299.427	-1943.642	601.233	276.324	-1863.848	600.077	907.461	-2311.571	603.177	826.383	-2298.539	451.649	907.595	-2304.555	446.168	832.035	-2300.037	497.672	727.417	-2312.477	540.241	641.700	-2333.596	428.627	642.373	-2319.505	423.735	566.597	-2335.697	505.344	338.294	-2357.312	421.581	296.984	-2325.623	604.828	278.568	-2384.170	539.177	1274.042	-1922.075	536.537	1094.336	-1892.233	510.627	693.919	-2077.277	506.689	337.286	-1984.807	618.023	279.167	-1978.510	588.314	1269.655	-2315.897	526.473	1112.229	-2323.430	500.463	695.118	-2145.107	511.274	333.987	-2261.987	624.158	279.347	-2261.432
2	0.00500	533.308	1606.199	-1935.260	614.296	1600.044	-2081.834	583.249	1397.215	-1883.806	467.199	1306.445	-1851.974	548.508	1247.940	-1762.926	500.493	1133.748	-1731.790	569.921	1608.920	-2308.750	625.056	1600.453	-2139.023	442.038	1576.304	-2214.933	612.056	1452.279	-2352.356	515.835	1314.346	-2409.168	580.176	1248.289	-2470.654	544.238	1131.297	-2498.328	658.168	1151.670	-1985.986	427.704	1226.961	-2068.106	418.369	1221.311	-2120.518	432.835	1228.398	-2173.282	656.425	1140.548	-2241.760	596.260	945.204	-1905.495	445.045	958.780	-1933.958	442.001	883.844	-1942.280	494.518	736.405	-1912.790	519.448	604.040	-1880.660	519.282	529.552	-1887.565	409.807	610.244	-1928.438	408.239	533.822	-1924.137	481.850	333.143	-1893.878	416.001	299.429	-1943.635	601.257	276.299	-1863.850	600.079	907.464	-2311.582	603.205	826.382	-2298.547	451.646	907.674	-2304.721	446.199	832.007	-2300.040	497.692	727.398	-2312.496	540.242	641.698	-2333.597	428.646	642.372	-2319.512	423.764	566.621	-2335.707	505.348	338.279	-2357.324	421.590	296.990	-2325.628	604.825	278.570	-2384.169	539.118	1274.036	-1922.117	536.571	1094.332	-1892.192	510.601	693.909	-2077.289	506.671	337.277	-1984.806	618.030	279.144	-1978.528	588.283	1269.654	-2315.896	526.482	1112.224	-2323.422	500.465	695.105	-2145.099	511.267	333.976	-2261.985	624.152	279.337	-2261.438
3	0.01000	533.271	1606.202	-1935.257	614.229	1600.061	-2081.841	583.246	1397.234	-1883.805	467.203	1306.412	-1851.932	548.471	1247.938	-1762.948	500.498	1133.740	-1731.792	569.859	1608.922	-2308.752	625.019	1600.500	-2139.027	442.043	1576.296	-2214.944	612.034	1452.237	-2352.378	515.817	1314.349	-2409.171	580.160	1248.282	-2470.680	544.304	1131.254	-2498.336	658.109	1151.678	-1986.036	427.683	1226.966	-2068.091	418.392	1221.286	-2120.521	432.788	1228.456	-2173.368	656.432	1140.565	-2241.794	596.257	945.219	-1905.498	445.049	958.786	-1933.982	441.981	883.851	-1942.293	494.514	736.411	-1912.798	519.445	604.062	-1880.661	519.269	529.561	-1887.539	409.810	610.247	-1928.440	408.235	533.831	-1924.137	481.855	333.149	-1893.879	416.003	299.431	-1943.629	601.281	276.275	-1863.852	600.081	907.466	-2311.593	603.232	826.381	-2298.555	451.644	907.752	-2304.884	446.231	831.980	-2300.044	497.711	727.379	-2312.515	540.243	641.696	-2333.598	428.666	642.373	-2319.519	423.793	566.643	-2335.717	505.352	338.265	-2357.336	421.598	296.995	-2325.632	604.822	278.571	-2384.168	539.058	1274.033	-1922.160	536.601	1094.327	-1892.152	510.576	693.899	-2077.300	506.653	337.267	-1984.805	618.031	279.118	-1978.546	588.253	1269.653	-2315.895	526.492	1112.219	-2323.414	500.467	695.091	-2145.090	511.260	333.966	-2261.984	624.147	279.328	-2261.444
4	0.01500	533.235	1606.205	-1935.255	614.161	1600.079	-2081.847	583.243	1397.253	-1883.805	467.206	1306.385	-1851.894	548.434	1247.936	-1762.971	500.502	1133.733	-1731.794	569.798	1608.924	-2308.755	624.983	1600.547	-2139.031	442.047	1576.287	-2214.955	612.011	1452.195	-2352.399	515.800	1314.351	-2409.174	580.146	1248.275	-2470.703	544.369	1131.213	-2498.344	658.052	1151.687	-1986.086	427.662	1226.971	-2068.077	418.415	1221.260	-2120.524	432.745	1228.509	-2173.449	656.440	1140.582	-2241.829	596.251	945.233	-1905.501	445.053	958.792	-1934.004	441.960	883.859	-1942.308	494.510	736.417	-1912.807	519.444	604.083	-1880.659	519.256	529.569	-1887.515	409.814	610.250	-1928.444	408.230	533.839	-1924.138	481.861	333.154	-1893.880	416.004	299.433	-1943.623	601.303	276.251	-1863.853	600.083	907.469	-2311.604	603.259	826.379	-2298.563	451.642	907.828	-2305.042	446.263	831.954	-2300.050	497.729	727.361	-2312.534	540.244	641.694	-2333.599	428.686	642.374	-2319.526	423.820	566.665	-2335.727	505.355	338.251	-2357.347	421.606	297.000	-2325.636	604.819	278.573	-2384.167	538.997	1274.033	-1922.204	536.625	1094.321	-1892.115	510.551	693.889	-2077.311	506.634	337.257	-1984.804	618.027	279.090	-1978.563	588.225	1269.653	-2315.894	526.505	1112.214	-2323.407	500.470	695.077	-2145.081	511.253	333.955	-2261.982	624.141	279.319	-2261.450
5	0.02000	533.201	1606.207	-1935.253	614.093	1600.097	-2081.854	583.241	1397.272	-1883.805	467.206	1306.363	-1851.862	548.397	1247.933	-1762.995	500.507	1133.726	-1731.796	569.737	1608.926	-2308.757	624.945	1600.594	-2139.037	442.049	1576.278	-2214.966	611.989	1452.156	-2352.418	515.784	1314.351	-2409.175	580.134	1248.269	-2470.725	544.434	1131.173	-2498.353	657.997	1151.694	-1986.134	427.642	1226.976	-2068.062	418.437	1221.235	-2120.526	432.706	1228.558	-2173.526	656.448	1140.599	-2241.863	596.243	945.246	-1905.504	445.056	958.798	-1934.027	441.937	883.866	-1942.322	494.506	736.423	-1912.816	519.443	604.104	-1880.656	519.244	529.577	-1887.492	409.818	610.252	-1928.449	408.223	533.847	-1924.140	481.866	333.159	-1893.880	416.006	299.434	-1943.618	601.323	276.230	-1863.855	600.086	907.471	-2311.614	603.286	826.376	-2298.571	451.640	907.900	-2305.194	446.297	831.928	-2300.055	497.747	727.343	-2312.551	540.245	641.692	-2333.600	428.706	642.376	-2319.533	423.847	566.686	-2335.736	505.359	338.237	-2357.358	421.613	297.005	-2325.640	604.816	278.575	-2384.165	538.936	1274.036	-1922.249	536.645	1094.314	-1892.080	510.528	693.881	-2077.321	506.616	337.247	-1984.803	618.017	279.061	-1978.580	588.199	1269.652	-2315.893	526.520	1112.211	-2323.400	500.473	695.063	-2145.072	511.246	333.945	-2261.979	624.136	279.311	-2261.455
6	0.02500	533.169	1606.208	-1935.252	614.026	1600.116	-2081.862	583.239	1397.292	-1883.805	467.205	1306.348	-1851.836	548.361	1247.929	-1763.019	500.511	1133.720	-1731.799	569.677	1608.927	-2308.759	624.907	1600.641	-2139.044	442.049	1576.268	-2214.978	611.968	1452.118	-2352.437	515.770	1314.349	-2409.176	580.126	1248.264	-2470.744	544.499	1131.134	-2498.363	657.944	1151.702	-1986.179	427.624	1226.981	-2068.047	418.459	1221.210	-2120.527	432.672	1228.601	-2173.596	656.457	1140.616	-2241.896	596.232	945.259	-1905.506	445.057	958.803	-1934.048	441.914	883.873	-1942.337	494.502	736.428	-1912.825	519.442	604.124	-1880.651	519.231	529.585	-1887.471	409.822	610.254	-1928.456	408.215	533.855	-1924.142	481.871	333.165	-1893.881	416.007	299.436	-1943.613	601.342	276.210	-1863.857	600.089	907.472	-2311.623	603.312	826.374	-2298.578	451.640	907.967	-2305.336	446.330	831.905	-2300.062	497.764	727.327	-2312.568	540.246	641.690	-2333.602	428.726	642.379	-2319.540	423.873	566.705	-2335.745	505.362	338.223	-2357.368	421.619	297.008	-2325.643	604.812	278.576	-2384.164	538.876	1274.042	-1922.294	536.659	1094.307	-1892.048	510.507	693.873	-2077.331	506.598	337.238	-1984.802	618.004	279.032	-1978.595	588.176	1269.651	-2315.892	526.537	1112.209	-2323.395	500.477	695.050	-2145.064	511.239	333.935	-2261.976	624.131	279.303	-2261.460
7	0.03000	533.139	1606.209	-1935.252	613.959	1600.135	-2081.869	583.238	1397.312	-1883.805	467.202	1306.338	-1851.815	548.325	1247.923	-1763.044	500.516	1133.714	-1731.801	569.618	1608.929	-2308.762	624.869	1600.687	-2139.052	442.047	1576.256	-2214.990	611.948	1452.082	-2352.454	515.756	1314.344	-2409.175	580.121	1248.260	-2470.761	544.562	1131.097	-2498.374	657.895	1151.709	-1986.222	427.607	1226.986	-2068.032	418.479	1221.187	-2120.529	432.643	1228.638	-2173.660	656.467	1140.634	-2241.929	596.217	945.271	-1905.507	445.058	958.809	-1934.070	441.891	883.880	-1942.351	494.499	736.433	-1912.834	519.442	604.143	-1880.645	519.219	529.591	-1887.453	409.826	610.255	-1928.465	408.205	533.863	-1924.145	481.877	333.171	-1893.881	416.007	299.437	-1943.610	601.359	276.192	-1863.858	600.092	907.473	-2311.632	603.337	826.371	-2298.585	451.640	908.029	-2305.468	446.364	831.882	-2300.069	497.780	727.311	-2312.583	540.247	641.687	-2333.605	428.745	642.382	-2319.547	423.896	566.723	-2335.754	505.365	338.211	-2357.378	421.625	297.012	-2325.646	604.809	278.578	-2384.164	538.817	1274.052	-1922.339	536.667	1094.299	-1892.019	510.488	693.865	-2077.341	506.580	337.228	-1984.801	617.987	279.002	-1978.610	588.158	1269.651	-2315.891	526.557	1112.208	-2323.390	500.481	695.038	-2145.055	511.233	333.927	-2261.972	624.127	279.297	-2261.465
8	0.03500	533.112	1606.208	-1935.251	613.893	1600.155	-2081.877	583.237	1397.333	-1883.806	467.197	1306.335	-1851.799	548.290	1247.917	-1763.069	500.520	1133.709	-1731.802	569.561	1608.930	-2308.764	624.831	1600.733	-2139.061	442.043	1576.244	-2215.003	611.928	1452.049	-2352.469	515.744	1314.338	-2409.174	580.119	1248.257	-2470.775	544.625	1131.061	-2498.385	657.849	1151.715	-1986.262	427.591	1226.991	-2068.018	418.499	1221.165	-2120.530	432.619	1228.670	-2173.717	656.477	1140.652	-2241.960	596.200	945.281	-1905.508	445.058	958.814	-1934.091	441.867	883.886	-1942.366	494.495	736.437	-1912.843	519.442	604.160	-1880.638	519.206	529.597	-1887.437	409.831	610.255	-1928.475	408.193	533.871	-1924.148	481.881	333.176	-1893.882	416.008	299.438	-1943.607	601.374	276.177	-1863.860	600.096	907.474	-2311.640	603.360	826.368	-2298.591	451.641	908.084	-2305.587	446.397	831.862	-2300.077	497.794	727.298	-2312.597	540.248	641.685	-2333.608	428.764	642.387	-2319.555	423.918	566.740	-2335.762	505.367	338.199	-2357.386	421.630	297.015	-2325.649	604.806	278.579	-2384.163	538.761	1274.066	-1922.383	536.670	1094.291	-1891.994	510.471	693.859	-2077.349	506.563	337.220	-1984.800	617.969	278.974	-1978.623	588.143	1269.650	-2315.890	526.578	1112.209	-2323.386	500.486	695.026	-2145.048	511.227	333.919	-2261.967	624.123	279.291	-2261.469
9	0.04000	533.087	1606.207	-1935.249	613.830	1600.175	-2081.885	583.237	1397.354	-1883.808	467.190	1306.338	-1851.790	548.256	1247.909	-1763.095	500.524	1133.704	-1731.804	569.505	1608.931	-2308.766	624.792	1600.778	-2139.072	442.036	1576.231	-2215.016	611.909	1452.019	-2352.483	515.734	1314.328	-2409.172	580.121	1248.255	-2470.786	544.687	1131.027	-2498.396	657.806	1151.721	-1986.298	427.576	1226.995	-2068.005	418.516	1221.145	-2120.531	432.600	1228.696	-2173.767	656.487	1140.670	-2241.990	596.179	945.290	-1905.508	445.056	958.818	-1934.112	441.843	883.892	-1942.380	494.492	736.441	-1912.853	519.442	604.176	-1880.630	519.193	529.603	-1887.424	409.836	610.255	-1928.488	408.180	533.878	-1924.153	481.886	333.182	-1893.882	416.009	299.438	-1943.605	601.386	276.164	-1863.861	600.100	907.473	-2311.647	603.382	826.364	-2298.597	451.643	908.133	-2305.694	446.429	831.844	-2300.085	497.807	727.285	-2312.609	540.249	641.683	-2333.613	428.782	642.393	-2319.563	423.938	566.754	-2335.770	505.369	338.188	-2357.393	421.634	297.017	-2325.652	604.804	278.580	-2384.162	538.707	1274.083	-1922.426	536.667	1094.282	-1891.972	510.456	693.853	-2077.357	506.547	337.211	-1984.799	617.950	278.948	-1978.635	588.133	1269.650	-2315.888	526.602	1112.210	-2323.384	500.491	695.017	-2145.041	511.222	333.912	-2261.962	624.119	279.287	-2261.473
